# This file uses centimeters as units for non-parametric coordinates.

mtllib testBox.mtl
g default
v -0.872463 -0.744946 0.749305
v 0.683093 -0.744946 0.749305
v -0.872463 0.810609 0.749305
v 0.683093 0.810609 0.749305
v -0.872463 0.810609 -0.806251
v 0.683093 0.810609 -0.806251
v -0.872463 -0.744946 -0.806251
v 0.683093 -0.744946 -0.806251
v -0.928260 0.893468 -0.096096
v -0.928260 -0.856532 -0.096096
v 0.821740 -0.856532 -0.096096
v 0.821740 0.893468 -0.096096
v -0.319561 0.893468 -0.891016
v -0.319561 -0.856532 -0.891016
v -0.319561 -1.000000 -0.096096
v -0.319561 -0.856532 0.858984
v -0.319561 0.893468 0.858984
v -0.319561 1.000000 -0.096096
v 0.821740 0.110807 -0.891016
v -0.319561 0.110807 -1.000000
v -0.928260 0.110807 -0.891016
v -1.000000 0.110807 -0.096096
v -0.928260 0.110807 0.858984
v -0.319561 0.110807 1.000000
v 0.821740 0.110807 0.858984
v 1.000000 0.110807 -0.096096
v -0.319561 -1.000000 -0.564064
v -0.928260 -0.856532 -0.564064
v 1.000000 0.110807 -0.564064
v 0.821740 0.573871 -0.891016
v 0.821740 0.893468 -0.564064
v -0.319561 1.000000 -0.564064
v 0.286959 0.893468 -0.891016
v 0.286959 0.110807 -1.000000
v 0.286959 -0.856532 -0.891016
v 0.821740 -0.856532 -0.564064
v 0.286959 -1.000000 -0.096096
v 0.821740 -0.856532 0.435936
v 0.286959 -0.856532 0.858984
v 0.286959 0.110807 1.000000
v 0.286959 0.893468 0.858984
v 0.286959 1.000000 -0.096096
v 0.821740 -0.426129 -0.891016
v -0.319561 -0.426129 -1.000000
v -0.928260 -0.426129 -0.891016
v -1.000000 -0.426129 -0.096096
v -0.928260 -0.426129 0.858984
v -0.319561 -0.426129 1.000000
v 0.821740 -0.426129 0.858984
v 1.000000 -0.426129 -0.096096
v -0.713041 0.110807 1.000000
v -0.319561 0.573871 1.000000
v -0.713041 0.893468 0.858984
v -0.928260 0.573871 0.858984
v -0.319561 1.000000 0.435936
v -0.713041 1.000000 -0.096096
v -0.928260 0.893468 0.435936
v -0.713041 0.893468 -0.891016
v -0.319561 0.573871 -1.000000
v -0.713041 0.110807 -1.000000
v -0.928260 0.573871 -0.891016
v -0.713041 -1.000000 -0.096096
v -0.319561 -1.000000 0.435936
v -0.713041 -0.856532 0.858984
v -0.928260 -0.856532 0.435936
v 1.000000 0.110807 0.435936
v 1.000000 0.573871 -0.096096
v 0.821740 0.893468 0.435936
v 0.821740 0.573871 0.858984
v -1.000000 0.110807 0.435936
v -1.000000 0.573871 -0.096096
v -1.000000 0.110807 -0.564064
v -0.928260 0.893468 -0.564064
v -0.713041 -0.856532 -0.891016
v -0.713041 0.573871 1.000000
v -0.713041 1.000000 0.435936
v -0.713041 0.573871 -1.000000
v -0.713041 -1.000000 0.435936
v 1.000000 0.573871 0.435936
v -1.000000 0.573871 0.435936
v -1.000000 0.573871 -0.564064
v -0.713041 -1.000000 -0.564064
v 1.000000 0.573871 -0.564064
v -0.713041 1.000000 -0.564064
v 0.286959 0.573871 -1.000000
v 0.286959 -1.000000 -0.564064
v 0.286959 -1.000000 0.435936
v 0.286959 0.573871 1.000000
v 0.286959 1.000000 0.435936
v 0.286959 1.000000 -0.564064
v 0.286959 -0.426129 -1.000000
v -0.713041 -0.426129 -1.000000
v -1.000000 -0.426129 -0.564064
v -1.000000 -0.426129 0.435936
v -0.713041 -0.426129 1.000000
v 0.286959 -0.426129 1.000000
v 1.000000 -0.426129 0.435936
v 1.000000 -0.426129 -0.564064
vt 0.993929 0.993809
vt 0.006311 0.006191
vt 0.993929 0.006191
vt 0.993929 0.006191
vt 0.006311 0.993809
vt 0.993929 0.006191
vt 0.006311 0.993809
vt 0.006311 0.006191
vt 0.993929 0.993809
vt 0.993929 0.993809
vt 0.993929 0.006191
vt 0.993929 0.993809
vt 0.006311 0.006191
vt 0.006311 0.993809
vt 0.006311 0.993809
vt 0.993929 0.006191
vt 0.993929 0.006191
vt 0.993929 0.993809
vt 0.006311 0.993809
vt 0.006311 0.006191
vt 0.006311 0.993809
vt 0.006311 0.006191
vt 0.993929 0.993809
vt 0.006311 0.006191
vt 0.006311 0.563271
vt 0.436849 0.993809
vt 0.436849 0.993809
vt 0.436849 0.006191
vt 0.436849 0.006191
vt 0.006311 0.436729
vt 0.993929 0.436729
vt 0.993929 0.563271
vt 0.289718 0.006191
vt 0.289717 0.993809
vt 0.006311 0.710403
vt 0.289718 0.993809
vt 0.452667 0.657802
vt 0.993929 0.710403
vt 0.289718 0.006191
vt 0.289718 0.993809
vt 0.289717 0.006191
vt 0.342318 0.547453
vt 0.573077 0.006191
vt 0.993929 0.427044
vt 0.342318 0.445283
vt 0.006311 0.427044
vt 0.006311 0.572957
vt 0.452667 0.554717
vt 0.006311 0.572956
vt 0.993929 0.572957
vt 0.342318 0.554717
vt 0.573077 0.993809
vt 0.993929 0.572956
vt 0.554838 0.452546
vt 0.148014 0.783383
vt 0.148014 0.284731
vt 0.148014 0.216617
vt 0.715389 0.852106
vt 0.783503 0.715269
vt 0.715389 0.783383
vt 0.221580 0.783383
vt 0.221580 0.852106
vt 0.783503 0.221460
vt 0.148014 0.778540
vt 0.641823 0.216617
vt 0.221580 0.358297
vt 0.715389 0.358297
vt 0.641823 0.783383
vt 0.641823 0.284731
vt 0.641823 0.778540
vt 0.641823 0.710426
vt 0.148014 0.710426
vt 0.221580 0.289574
vt 0.715389 0.289574
vt 0.148014 0.289574
vt 0.641823 0.289574
vt 0.289694 0.715269
vt 0.289694 0.221460
vt 0.148014 0.554717
vt 0.342318 0.783383
vt 0.148014 0.993809
vt 0.148014 0.006191
vt 0.006311 0.783383
vt 0.993929 0.783383
vt 0.342318 0.284731
vt 0.148014 0.547453
vt 0.006311 0.284731
vt 0.715389 0.993809
vt 0.148014 0.006191
vt 0.148014 0.993809
vt 0.342318 0.216617
vt 0.148014 0.445283
vt 0.006311 0.216617
vt 0.006311 0.783383
vt 0.452667 0.852106
vt 0.715389 0.657802
vt 0.993929 0.852106
vt 0.148014 0.006191
vt 0.715389 0.993809
vt 0.715389 0.006191
vt 0.554838 0.715269
vt 0.783503 0.452546
vt 0.993929 0.715269
vt 0.993929 0.284731
vt 0.783503 0.993809
vt 0.993929 0.783383
vt 0.715389 0.554717
vt 0.452667 0.783383
vt 0.221580 0.554717
vt 0.221580 0.993809
vt 0.006311 0.778540
vt 0.006311 0.852106
vt 0.148014 0.993809
vt 0.221580 0.657802
vt 0.221580 0.993809
vt 0.221580 0.006191
vt 0.554838 0.221460
vt 0.783503 0.006191
vt 0.993929 0.216617
vt 0.993929 0.221460
vt 0.993929 0.778540
vt 0.342318 0.778540
vt 0.641823 0.006191
vt 0.641823 0.993809
vt 0.641823 0.445283
vt 0.006311 0.358297
vt 0.641823 0.993809
vt 0.221580 0.006191
vt 0.006311 0.221460
vt 0.452667 0.358297
vt 0.715389 0.006191
vt 0.006311 0.715269
vt 0.993929 0.358297
vt 0.641823 0.006191
vt 0.641823 0.554717
vt 0.641823 0.993809
vt 0.641823 0.006191
vt 0.641823 0.547453
vt 0.993929 0.710426
vt 0.289694 0.006191
vt 0.342318 0.710426
vt 0.006311 0.710426
vt 0.006311 0.289574
vt 0.452667 0.289574
vt 0.993929 0.289574
vt 0.006311 0.289574
vt 0.342318 0.289574
vt 0.993929 0.289574
vt 0.289694 0.993809
vt 0.289694 0.452546
vn -0.891291 0.000000 0.453431
vn -0.225691 0.000000 0.974199
vn -0.874413 0.132604 0.466710
vn -0.211180 0.169164 0.962698
vn 0.000000 0.000000 1.000000
vn 0.000000 0.177320 0.984153
vn -0.202871 0.773766 0.600108
vn -0.000000 0.797903 0.602785
vn -0.780768 0.509921 0.361084
vn -0.163274 0.980451 0.109808
vn -0.819615 0.563457 0.103668
vn 0.000000 0.993837 0.110855
vn -0.172396 0.985028 -0.000000
vn 0.000000 1.000000 0.000000
vn -0.829460 0.558566 -0.000000
vn -0.183572 0.702283 -0.687822
vn -0.167487 0.134322 -0.976681
vn -0.743991 0.478945 -0.465929
vn -0.822248 0.123485 -0.555571
vn -0.000000 0.715105 -0.699018
vn -0.000000 0.137917 -0.990444
vn -0.176241 0.000000 -0.984347
vn -0.000000 0.000000 -1.000000
vn -0.835277 -0.000000 -0.549830
vn -0.894412 -0.447243 -0.000000
vn -0.229410 -0.973330 -0.000000
vn -0.880943 -0.459659 0.112483
vn -0.214571 -0.966045 0.143929
vn 0.000000 -1.000000 0.000000
vn 0.000000 -0.988905 0.148549
vn -0.232981 -0.682311 0.692944
vn 0.000000 -0.700987 0.713174
vn -0.832131 -0.387892 0.396356
vn 0.620415 -0.000000 0.784274
vn 0.983024 -0.000000 0.183476
vn 0.615034 0.212468 0.759335
vn 0.961755 0.209973 0.175897
vn 1.000000 0.000000 0.000000
vn 0.975030 0.222074 0.000000
vn 0.522166 0.838608 0.155175
vn 0.512994 0.858392 0.000000
vn 0.407792 0.735204 0.541462
vn -1.000000 0.000000 0.000000
vn -0.997191 0.000000 0.074903
vn -0.995825 0.091279 -0.000000
vn -0.993173 0.089277 0.075085
vn -0.995952 -0.000000 -0.089883
vn -0.991974 0.090007 -0.088801
vn -0.817088 0.563660 -0.121056
vn -0.206495 -0.601642 -0.771613
vn -0.214431 -0.961937 -0.169403
vn -0.787495 -0.357590 -0.501978
vn -0.877643 -0.460933 -0.131470
vn 0.000000 -0.604902 -0.796300
vn -0.000000 -0.984101 -0.177612
vn 0.521955 0.836900 -0.164807
vn 0.955764 0.209545 -0.206411
vn 0.975766 0.000000 -0.218815
vn 0.529112 0.169087 -0.831535
vn 0.521614 -0.000000 -0.853181
vn 0.308385 0.680545 -0.664648
vn -0.163968 0.977898 -0.129727
vn 0.000000 0.991139 -0.132829
vn 0.111449 0.710225 -0.695097
vn 0.095362 0.132838 -0.986539
vn 0.095059 -0.000000 -0.995472
vn 0.124724 -0.992192 0.000000
vn 0.123420 -0.977695 -0.169939
vn 0.126177 -0.606582 -0.784944
vn 0.416252 -0.541028 -0.730769
vn 0.620851 -0.754760 -0.211850
vn 0.626983 -0.779033 0.000000
vn 0.144162 -0.694090 0.705306
vn 0.123454 -0.981783 0.144435
vn 0.623543 -0.759839 0.183951
vn 0.477586 -0.615274 0.627176
vn 0.123777 0.786793 0.604679
vn 0.121448 0.169531 0.978013
vn 0.122625 -0.000000 0.992453
vn 0.092939 0.995672 0.000000
vn 0.092998 0.989717 0.108681
vn 0.093306 0.987352 -0.128177
vn 0.000000 -0.111955 -0.993713
vn 0.095027 -0.109824 -0.989398
vn 0.529997 -0.155739 -0.833576
vn -0.825253 -0.103263 -0.555243
vn -0.166735 -0.110848 -0.979751
vn -0.993357 -0.074172 -0.087977
vn -0.997261 -0.073959 -0.000000
vn -0.994501 -0.073640 0.074460
vn -0.878186 -0.110784 0.465313
vn -0.211266 -0.140126 0.967332
vn 0.000000 -0.144253 0.989541
vn 0.617967 -0.180469 0.765211
vn 0.121457 -0.140496 0.982603
vn 0.968638 -0.174700 0.176690
vn 0.983441 -0.181228 0.000000
vn 0.962690 -0.174028 -0.207225
s 1
g pCube1
usemtl initialShadingGroup
f 23/49/1 51/79/2 54/83/3
f 54/83/3 51/79/2 75/55/4
f 51/79/2 24/51/5 75/55/4
f 75/55/4 24/51/5 52/80/6
f 75/55/4 52/80/6 53/81/7
f 53/81/7 52/80/6 17/40/8
f 54/83/3 75/55/4 3/7/9
f 3/7/9 75/55/4 53/81/7
f 53/82/7 76/56/10 3/8/9
f 3/8/9 76/56/10 57/87/11
f 53/82/7 17/41/8 76/56/10
f 76/56/10 17/41/8 55/85/12
f 76/56/10 55/85/12 56/86/13
f 56/86/13 55/85/12 18/42/14
f 57/87/11 76/56/10 9/25/15
f 9/25/15 76/56/10 56/86/13
f 58/89/16 77/57/17 5/13/18
f 5/13/18 77/57/17 61/93/19
f 58/89/16 13/33/20 77/57/17
f 77/57/17 13/33/20 59/91/21
f 77/57/17 59/91/21 60/92/22
f 60/92/22 59/91/21 20/45/23
f 61/93/19 77/57/17 21/46/24
f 21/46/24 77/57/17 60/92/22
f 10/27/25 62/95/26 65/99/27
f 65/99/27 62/95/26 78/58/28
f 62/95/26 15/37/29 78/58/28
f 78/58/28 15/37/29 63/96/30
f 78/58/28 63/96/30 64/97/31
f 64/97/31 63/96/30 16/38/32
f 65/99/27 78/58/28 1/1/33
f 1/1/33 78/58/28 64/97/31
f 25/52/34 66/101/35 69/105/36
f 69/105/36 66/101/35 79/59/37
f 66/101/35 26/54/38 79/59/37
f 79/59/37 26/54/38 67/102/39
f 79/59/37 67/102/39 68/103/40
f 68/103/40 67/102/39 12/31/41
f 69/105/36 79/59/37 4/10/42
f 4/10/42 79/59/37 68/103/40
f 22/48/43 70/107/44 71/108/45
f 71/108/45 70/107/44 80/60/46
f 70/107/44 23/50/1 80/60/46
f 80/60/46 23/50/1 54/84/3
f 54/84/3 3/9/9 80/60/46
f 80/60/46 3/9/9 57/88/11
f 71/108/45 80/60/46 9/26/15
f 9/26/15 80/60/46 57/88/11
f 21/47/24 72/109/47 61/94/19
f 61/94/19 72/109/47 81/61/48
f 72/109/47 22/48/43 81/61/48
f 81/61/48 22/48/43 71/108/45
f 81/61/48 71/108/45 73/110/49
f 73/110/49 71/108/45 9/26/15
f 61/94/19 81/61/48 5/14/18
f 5/14/18 81/61/48 73/110/49
f 74/112/50 82/62/51 7/19/52
f 7/19/52 82/62/51 28/115/53
f 74/112/50 14/35/54 82/62/51
f 82/62/51 14/35/54 27/114/55
f 82/62/51 27/114/55 62/95/26
f 62/95/26 27/114/55 15/37/29
f 28/115/53 82/62/51 10/27/25
f 10/27/25 82/62/51 62/95/26
f 12/31/41 67/102/39 31/120/56
f 31/120/56 67/102/39 83/63/57
f 67/102/39 26/54/38 83/63/57
f 83/63/57 26/54/38 29/117/58
f 83/63/57 29/117/58 30/118/59
f 30/118/59 29/117/58 19/43/60
f 83/63/57 30/118/59 31/120/56
f 31/120/56 30/118/59 6/16/61
f 9/25/15 56/86/13 73/111/49
f 73/111/49 56/86/13 84/64/62
f 56/86/13 18/42/14 84/64/62
f 84/64/62 18/42/14 32/122/63
f 84/64/62 32/122/63 58/90/16
f 58/90/16 32/122/63 13/34/20
f 73/111/49 84/64/62 5/15/18
f 5/15/18 84/64/62 58/90/16
f 13/33/20 33/123/64 59/91/21
f 59/91/21 33/123/64 85/65/65
f 33/123/64 6/17/61 85/65/65
f 85/65/65 6/17/61 30/119/59
f 85/65/65 30/119/59 34/125/66
f 34/125/66 30/119/59 19/44/60
f 59/91/21 85/65/65 20/45/23
f 20/45/23 85/65/65 34/125/66
f 15/37/29 27/114/55 37/130/67
f 37/130/67 27/114/55 86/66/68
f 27/114/55 14/35/54 86/66/68
f 86/66/68 14/35/54 35/126/69
f 35/126/69 8/22/70 86/66/68
f 86/66/68 8/22/70 36/128/71
f 37/130/67 86/66/68 11/29/72
f 11/29/72 86/66/68 36/128/71
f 16/38/32 63/96/30 39/133/73
f 39/133/73 63/96/30 87/67/74
f 63/96/30 15/37/29 87/67/74
f 87/67/74 15/37/29 37/130/67
f 87/67/74 37/130/67 38/131/75
f 38/131/75 37/130/67 11/29/72
f 39/133/73 87/67/74 2/4/76
f 2/4/76 87/67/74 38/131/75
f 17/40/8 52/80/6 41/136/77
f 41/136/77 52/80/6 88/68/78
f 52/80/6 24/51/5 88/68/78
f 88/68/78 24/51/5 40/135/79
f 88/68/78 40/135/79 69/106/36
f 69/106/36 40/135/79 25/53/34
f 41/136/77 88/68/78 4/12/42
f 4/12/42 88/68/78 69/106/36
f 18/42/14 55/85/12 42/138/80
f 42/138/80 55/85/12 89/69/81
f 55/85/12 17/41/8 89/69/81
f 89/69/81 17/41/8 41/137/77
f 41/137/77 4/11/42 89/69/81
f 89/69/81 4/11/42 68/104/40
f 42/138/80 89/69/81 12/32/41
f 12/32/41 89/69/81 68/104/40
f 13/34/20 32/122/63 33/124/64
f 33/124/64 32/122/63 90/70/82
f 32/122/63 18/42/14 90/70/82
f 90/70/82 18/42/14 42/138/80
f 90/70/82 42/138/80 31/121/56
f 31/121/56 42/138/80 12/32/41
f 33/124/64 90/70/82 6/18/61
f 6/18/61 90/70/82 31/121/56
f 20/45/23 34/125/66 44/141/83
f 44/141/83 34/125/66 91/71/84
f 34/125/66 19/44/60 91/71/84
f 91/71/84 19/44/60 43/139/85
f 43/139/85 8/23/70 91/71/84
f 91/71/84 8/23/70 35/127/69
f 44/141/83 91/71/84 14/36/54
f 14/36/54 91/71/84 35/127/69
f 21/46/24 60/92/22 45/142/86
f 45/142/86 60/92/22 92/72/87
f 60/92/22 20/45/23 92/72/87
f 92/72/87 20/45/23 44/141/83
f 92/72/87 44/141/83 74/113/50
f 74/113/50 44/141/83 14/36/54
f 45/142/86 92/72/87 7/21/52
f 7/21/52 92/72/87 74/113/50
f 28/116/53 93/73/88 7/20/52
f 7/20/52 93/73/88 45/143/86
f 28/116/53 10/28/25 93/73/88
f 93/73/88 10/28/25 46/144/89
f 93/73/88 46/144/89 72/109/47
f 72/109/47 46/144/89 22/48/43
f 45/143/86 93/73/88 21/47/24
f 21/47/24 93/73/88 72/109/47
f 10/28/25 65/100/27 46/144/89
f 46/144/89 65/100/27 94/74/90
f 65/100/27 1/3/33 94/74/90
f 94/74/90 1/3/33 47/145/91
f 94/74/90 47/145/91 70/107/44
f 70/107/44 47/145/91 23/50/1
f 46/144/89 94/74/90 22/48/43
f 22/48/43 94/74/90 70/107/44
f 64/98/31 95/75/92 1/2/33
f 1/2/33 95/75/92 47/146/91
f 64/98/31 16/39/32 95/75/92
f 95/75/92 16/39/32 48/147/93
f 95/75/92 48/147/93 51/79/2
f 51/79/2 48/147/93 24/51/5
f 47/146/91 95/75/92 23/49/1
f 23/49/1 95/75/92 51/79/2
f 25/53/34 40/135/79 49/148/94
f 49/148/94 40/135/79 96/76/95
f 40/135/79 24/51/5 96/76/95
f 96/76/95 24/51/5 48/147/93
f 96/76/95 48/147/93 39/134/73
f 39/134/73 48/147/93 16/39/32
f 49/148/94 96/76/95 2/6/76
f 2/6/76 96/76/95 39/134/73
f 38/132/75 97/77/96 2/5/76
f 2/5/76 97/77/96 49/149/94
f 38/132/75 11/30/72 97/77/96
f 97/77/96 11/30/72 50/150/97
f 97/77/96 50/150/97 66/101/35
f 66/101/35 50/150/97 26/54/38
f 49/149/94 97/77/96 25/52/34
f 25/52/34 97/77/96 66/101/35
f 19/43/60 29/117/58 43/140/85
f 43/140/85 29/117/58 98/78/98
f 29/117/58 26/54/38 98/78/98
f 98/78/98 26/54/38 50/150/97
f 98/78/98 50/150/97 36/129/71
f 36/129/71 50/150/97 11/30/72
f 43/140/85 98/78/98 8/24/70
f 8/24/70 98/78/98 36/129/71
